HIERARCHY
ROOT hip
{
  OFFSET 0 0 0
  CHANNELS 6 Xposition Yposition Zposition Zrotation Yrotation Xrotation
  JOINT abdomen
  {
    OFFSET 0 20.6881 -0.73152
    CHANNELS 3 Zrotation Xrotation Yrotation
    JOINT chest
    {
      OFFSET 0 11.7043 -0.48768
      CHANNELS 3 Zrotation Xrotation Yrotation
      JOINT neck
      {
        OFFSET 0 22.1894 -2.19456
        CHANNELS 3 Zrotation Xrotation Yrotation
        JOINT head
        {
          OFFSET -0.24384 7.07133 1.2192
          CHANNELS 3 Zrotation Xrotation Yrotation
          JOINT leftEye
          {
            OFFSET 4.14528 8.04674 8.04672
            CHANNELS 3 Zrotation Xrotation Yrotation
            End Site
            {
              OFFSET 1 0 0
            }
          }
          JOINT rightEye
          {
            OFFSET -3.6576 8.04674 8.04672
            CHANNELS 3 Zrotation Xrotation Yrotation
            End Site
            {
              OFFSET 1 0 0
            }
          }
        }
      }
      JOINT rCollar
      {
        OFFSET -2.68224 19.2634 -4.8768
        CHANNELS 3 Zrotation Xrotation Yrotation
        JOINT rShldr
        {
          OFFSET -8.77824 -1.95073 1.46304
          CHANNELS 3 Zrotation Xrotation Yrotation
          JOINT rForeArm
          {
            OFFSET -28.1742 -1.7115 0.48768
            CHANNELS 3 Zrotation Xrotation Yrotation
            JOINT rHand
            {
              OFFSET -22.5879 0.773209 7.07136
              CHANNELS 3 Zrotation Xrotation Yrotation
              JOINT rThumb1
              {
                OFFSET -1.2192 -0.487915 3.41376
                CHANNELS 3 Zrotation Xrotation Yrotation
                JOINT rThumb2
                {
                  OFFSET -3.37035 -0.52449 3.41376
                  CHANNELS 3 Zrotation Xrotation Yrotation
                  End Site
                  {
                    OFFSET -1.78271 -1.18214 1.43049
                  }
                }
              }
              JOINT rIndex1
              {
                OFFSET -7.75947 0.938293 5.60832
                CHANNELS 3 Zrotation Xrotation Yrotation
                JOINT rIndex2
                {
                  OFFSET -2.54057 -0.884171 1.56538
                  CHANNELS 3 Zrotation Xrotation Yrotation
                  End Site
                  {
                    OFFSET -1.62519 -0.234802 1.16502
                  }
                }
              }
              JOINT rMid1
              {
                OFFSET -8.24714 1.18213 3.41376
                CHANNELS 3 Zrotation Xrotation Yrotation
                JOINT rMid2
                {
                  OFFSET -3.10165 -0.590103 1.0647
                  CHANNELS 3 Zrotation Xrotation Yrotation
                  End Site
                  {
                    OFFSET -2.48547 -0.328903 0.83742
                  }
                }
              }
              JOINT rRing1
              {
                OFFSET -8.82822 0.546677 1.51678
                CHANNELS 3 Zrotation Xrotation Yrotation
                JOINT rRing2
                {
                  OFFSET -2.60934 -0.819778 -0.0198488
                  CHANNELS 3 Zrotation Xrotation Yrotation
                  End Site
                  {
                    OFFSET -2.33842 -0.294052 0.168128
                  }
                }
              }
              JOINT rPinky1
              {
                OFFSET -8.27202 -0.0477905 -0.4584
                CHANNELS 3 Zrotation Xrotation Yrotation
                JOINT rPinky2
                {
                  OFFSET -1.82734 -0.647385 -0.700984
                  CHANNELS 3 Zrotation Xrotation Yrotation
                  End Site
                  {
                    OFFSET -1.69225 -0.51767 -0.607171
                  }
                }
              }
            }
          }
        }
      }
      JOINT lCollar
      {
        OFFSET 2.68224 19.2634 -4.8768
        CHANNELS 3 Zrotation Xrotation Yrotation
        JOINT lShldr
        {
          OFFSET 8.77824 -1.95073 1.46304
          CHANNELS 3 Zrotation Xrotation Yrotation
          JOINT lForeArm
          {
            OFFSET 28.1742 -1.7115 0.48768
            CHANNELS 3 Zrotation Xrotation Yrotation
            JOINT lHand
            {
              OFFSET 22.5879 0.773209 7.07136
              CHANNELS 3 Zrotation Xrotation Yrotation
              JOINT lThumb1
              {
                OFFSET 1.2192 -0.487915 3.41376
                CHANNELS 3 Zrotation Xrotation Yrotation
                JOINT lThumb2
                {
                  OFFSET 3.37035 -0.52449 3.41376
                  CHANNELS 3 Zrotation Xrotation Yrotation
                  End Site
                  {
                    OFFSET 1.78271 -1.18214 1.43049
                  }
                }
              }
              JOINT lIndex1
              {
                OFFSET 7.75947 0.938293 5.60832
                CHANNELS 3 Zrotation Xrotation Yrotation
                JOINT lIndex2
                {
                  OFFSET 2.54057 -0.884171 1.56538
                  CHANNELS 3 Zrotation Xrotation Yrotation
                  End Site
                  {
                    OFFSET 1.62519 -0.234802 1.16502
                  }
                }
              }
              JOINT lMid1
              {
                OFFSET 8.24714 1.18213 3.41376
                CHANNELS 3 Zrotation Xrotation Yrotation
                JOINT lMid2
                {
                  OFFSET 3.10165 -0.590103 1.0647
                  CHANNELS 3 Zrotation Xrotation Yrotation
                  End Site
                  {
                    OFFSET 2.48547 -0.328903 0.83742
                  }
                }
              }
              JOINT lRing1
              {
                OFFSET 8.82822 0.546677 1.51678
                CHANNELS 3 Zrotation Xrotation Yrotation
                JOINT lRing2
                {
                  OFFSET 2.60934 -0.819778 -0.0198488
                  CHANNELS 3 Zrotation Xrotation Yrotation
                  End Site
                  {
                    OFFSET 2.33842 -0.294052 0.168128
                  }
                }
              }
              JOINT lPinky1
              {
                OFFSET 8.27202 -0.0477905 -0.4584
                CHANNELS 3 Zrotation Xrotation Yrotation
                JOINT lPinky2
                {
                  OFFSET 1.82734 -0.647385 -0.700984
                  CHANNELS 3 Zrotation Xrotation Yrotation
                  End Site
                  {
                    OFFSET 1.69225 -0.51767 -0.607171
                  }
                }
              }
            }
          }
        }
      }
    }
  }
  JOINT rButtock
  {
    OFFSET -8.77824 4.35084 1.2192
    CHANNELS 3 Zrotation Xrotation Yrotation
    JOINT rThigh
    {
      OFFSET 0 -1.70687 -2.19456
      CHANNELS 3 Zrotation Xrotation Yrotation
      JOINT rShin
      {
        OFFSET 0 -36.8199 0.73152
        CHANNELS 3 Zrotation Xrotation Yrotation
        JOINT rFoot
        {
          OFFSET 0.73152 -45.1104 -5.12064
          CHANNELS 3 Zrotation Xrotation Yrotation
          End Site
          {
            OFFSET -1.1221 -3.69964 12.103
          }
        }
      }
    }
  }
  JOINT lButtock
  {
    OFFSET 8.77824 4.35084 1.2192
    CHANNELS 3 Zrotation Xrotation Yrotation
    JOINT lThigh
    {
      OFFSET 0 -1.70687 -2.19456
      CHANNELS 3 Zrotation Xrotation Yrotation
      JOINT lShin
      {
        OFFSET 0 -36.8199 0.73152
        CHANNELS 3 Zrotation Xrotation Yrotation
        JOINT lFoot
        {
          OFFSET -0.73152 -45.1104 -5.12064
          CHANNELS 3 Zrotation Xrotation Yrotation
          End Site
          {
            OFFSET 1.1221 -3.69964 12.103
          }
        }
      }
    }
  }
}
MOTION
Frames:	4
Frame Time:	0.03333
-0.021371325072586024 34.736310137406775 0.029220846605050456 -20.587400436401367 -25.031599044799805 12.709099769592285 17.306396484375 7.296319484710693 9.101728439331055 -1.7126699686050415 -7.775411128997803 2.58243989944458 -2.5475993156433105 14.474498748779297 2.3674798011779785 7.490338325500488 -22.83789825439453 6.229330062866211 -0.0 0.0 -0.0 -0.0 0.0 -0.0 -2.544443605465019e-13 5.0888872109300376e-14 4.452776309563783e-14 75.43379211425781 37.55560302734375 -17.104398727416992 -19.761096954345703 -12.71419906616211 38.103294372558594 -0.25297796726226807 14.17549991607666 2.034330129623413 2.168807355928948e-09 -2.1465180743973633e-09 1.3914480678778318e-09 3.76424980075285e-09 -3.7100023053682207e-09 2.374201280019861e-09 2.168807355928948e-09 -2.1465180743973633e-09 1.3914480678778318e-09 7.7309088706970215 5.474880218505859 0.41731396317481995 2.168807355928948e-09 -2.1465180743973633e-09 1.3914480678778318e-09 2.9055399894714355 0.9651829600334167 0.10290198773145676 2.168807355928948e-09 -2.1465180743973633e-09 1.3914480678778318e-09 10.27859878540039 0.73180091381073 0.025912299752235413 2.168807355928948e-09 -2.1465180743973633e-09 1.391460835442615e-09 2.2216696739196777 -0.7334870100021362 -0.2089199721813202 -2.544443605465019e-13 5.0888872109300376e-14 4.452776309563783e-14 -72.32550048828125 22.233999252319336 -7.436699390411377 14.388998031616211 -7.272530555725098 -26.340299606323242 0.08021388947963715 8.053159713745117 -1.1393897533416748 2.112676922294554e-09 5.035403205511102e-09 2.251877129211266e-09 3.6658307500658793e-09 8.700648201909189e-09 3.876122534052229e-09 2.1126516092095926e-09 5.035403205511102e-09 2.2519026643408324e-09 -7.7309088706970215 5.474880218505859 -0.41731396317481995 2.112676922294554e-09 5.035403205511102e-09 2.251877129211266e-09 -2.9055399894714355 0.9651829600334167 -0.10290198773145676 2.1126516092095926e-09 5.035403205511102e-09 2.251877129211266e-09 -10.27859878540039 0.73180091381073 -0.025912299752235413 2.112676922294554e-09 5.035403205511102e-09 2.251877129211266e-09 -2.2216696739196777 -0.7334870100021362 0.2089199721813202 -0.0 0.0 -0.0 0.869459867477417 9.048760414123535 -7.198019027709961 0.007167405914515257 33.96699523925781 2.0929596424102783 -12.471996307373047 -20.594701766967773 -30.9114990234375 -0.0 0.0 -0.0 76.3012924194336 -55.70319747924805 66.58779907226562 2.84917950630188 73.44880676269531 -2.8608198165893555 0.5713340044021606 -1.9153602123260498 -0.13127900660037994
-0.04858682080020346 34.697063870435876 0.05500394694304242 -20.68889808654785 -24.94940185546875 12.69890022277832 17.52680015563965 7.2633891105651855 8.974140167236328 -1.7526297569274902 -7.74245023727417 2.545680046081543 -2.5413599014282227 14.530799865722656 2.3961501121520996 7.398920059204102 -22.837299346923828 6.263440132141113 -0.0 0.0 -0.0 -0.0 0.0 -0.0 -2.544443605465019e-13 2.035554884372015e-13 -4.770831624721639e-13 75.38719940185547 37.76929473876953 -17.05689811706543 -19.73379898071289 -12.680500030517578 38.037498474121094 -0.2531229853630066 14.179399490356445 2.0349197387695312 1.9264745354519164e-09 -1.4102069512134108e-09 1.1827273604936295e-09 3.3424065737364117e-09 -2.4346762383942178e-09 2.011980582139472e-09 1.9264745354519164e-09 -1.4102323753206747e-09 1.1827210322223891e-09 7.7309088706970215 5.474880218505859 0.41731396317481995 1.9264745354519164e-09 -1.4102323753206747e-09 1.1827210322223891e-09 2.9055399894714355 0.9651829600334167 0.10290198773145676 1.9264745354519164e-09 -1.4102323753206747e-09 1.1827273604936295e-09 10.27859878540039 0.73180091381073 0.025912299752235413 1.926449222366955e-09 -1.4102323753206747e-09 1.1827401280584127e-09 2.2216696739196777 -0.7334870100021362 -0.2089199721813202 -2.544443605465019e-13 2.035554884372015e-13 -4.770831624721639e-13 -72.51079559326172 21.99989891052246 -7.271369457244873 14.327398300170898 -7.221349239349365 -26.21579933166504 0.0785176083445549 7.967289924621582 -1.1270800828933716 3.337444987039362e-09 6.581076128497898e-09 2.5034780914978683e-09 5.784258405583387e-09 1.136010130409204e-08 4.299212985614531e-09 3.337444987039362e-09 6.581076128497898e-09 2.503497187333892e-09 -7.7309088706970215 5.474880218505859 -0.41731396317481995 3.3374703001243233e-09 6.581076128497898e-09 2.503490748040349e-09 -2.9055399894714355 0.9651829600334167 -0.10290198773145676 3.337444987039362e-09 6.581076128497898e-09 2.503490748040349e-09 -10.27859878540039 0.73180091381073 -0.025912299752235413 3.337444987039362e-09 6.581076128497898e-09 2.5034780914978683e-09 -2.2216696739196777 -0.7334870100021362 0.2089199721813202 -0.0 0.0 -0.0 1.0329397916793823 9.145051002502441 -7.1329498291015625 0.008283747360110283 33.97969436645508 2.098259925842285 -12.532198905944824 -20.536100387573242 -31.10059928894043 -0.0 0.0 -0.0 76.63479614257812 -55.65119552612305 66.84839630126953 2.896439790725708 73.64549255371094 -2.904400110244751 0.5428489446640015 -1.9950298070907593 -0.36544495820999146
-0.07167702067384539 34.67110915158983 0.08479775237095373 -20.85479736328125 -24.83399772644043 12.740198135375977 17.721099853515625 7.198350429534912 8.890958786010742 -1.765219807624817 -7.707729816436768 2.521209716796875 -2.5165698528289795 14.5339994430542 2.3976101875305176 7.290380477905273 -22.756898880004883 6.236989498138428 -0.0 0.0 -0.0 -0.0 0.0 -0.0 -5.0888872109300376e-14 2.035554884372015e-13 -7.633330816395056e-13 75.36799621582031 37.857200622558594 -17.052698135375977 -19.716501235961914 -12.659300804138184 37.99599838256836 -0.2511109709739685 14.124798774719238 2.0267398357391357 1.2030892948544647e-09 -7.421124270656776e-10 4.691954047508773e-10 2.0854769022804476e-09 -1.2797024551147729e-09 7.8943906967055e-10 1.2030892948544647e-09 -7.421124270656776e-10 4.691890209684857e-10 7.7309088706970215 5.474880218505859 0.41731396317481995 1.2030892948544647e-09 -7.421124270656776e-10 4.691890209684857e-10 2.9055399894714355 0.9651829600334167 0.10290198773145676 1.2030892948544647e-09 -7.421124270656776e-10 4.691954047508773e-10 10.27859878540039 0.73180091381073 0.025912299752235413 1.2030892948544647e-09 -7.421124270656776e-10 4.692017885332689e-10 2.2216696739196777 -0.7334870100021362 -0.2089199721813202 -5.0888872109300376e-14 2.035554884372015e-13 -7.633330816395056e-13 -72.63259887695312 21.809602737426758 -7.276549339294434 14.169898986816406 -7.092989921569824 -25.895198822021484 0.08044528216123581 8.064539909362793 -1.1410198211669922 3.7689318332922994e-09 5.12962383680815e-09 8.54805837224859e-10 6.519348172417949e-09 8.835097098369715e-09 1.445600195104646e-09 3.7689318332922994e-09 5.129598523723189e-09 8.548249330608826e-10 -7.7309088706970215 5.474880218505859 -0.41731396317481995 3.7689318332922994e-09 5.12962383680815e-09 8.54805837224859e-10 -2.9055399894714355 0.9651829600334167 -0.10290198773145676 3.7689318332922994e-09 5.12962383680815e-09 8.548121654960994e-10 -10.27859878540039 0.73180091381073 -0.025912299752235413 3.7689318332922994e-09 5.12962383680815e-09 8.54805837224859e-10 -2.2216696739196777 -0.7334870100021362 0.2089199721813202 -0.0 0.0 -0.0 1.1852699518203735 9.207119941711426 -7.119229793548584 0.00859428197145462 34.031402587890625 2.1052398681640625 -12.607698440551758 -20.557397842407227 -31.23200225830078 -0.0 0.0 -0.0 76.98929595947266 -55.66679763793945 67.1176986694336 2.948129653930664 73.85370635986328 -2.9512698650360107 0.5162450075149536 -1.9593199491500854 -0.581106960773468
-0.08823550030553887 34.62441114823445 0.11287268466533579 -20.922395706176758 -24.681697845458984 12.761999130249023 17.88939666748047 7.101229667663574 8.852190017700195 -1.7504597902297974 -7.671250343322754 2.509019613265991 -2.473209857940674 14.484299659729004 2.371849536895752 7.165108680725098 -22.596399307250977 6.150178909301758 -0.0 0.0 -0.0 -0.0 0.0 -0.0 3.5622210476510263e-13 5.0888872109300376e-14 -8.269441988811854e-13 75.37639617919922 37.819297790527344 -17.091999053955078 -19.70929718017578 -12.65049934387207 37.978797912597656 -0.24699603021144867 14.011499404907227 2.009810209274292 -1.3231106748418098e-12 -1.4218351496175785e-10 -7.491414710791844e-10 -6.513775629990448e-12 -2.450044611634894e-10 -1.2934170401379674e-09 -1.3231106748418098e-12 -1.4218351496175785e-10 -7.491541831328163e-10 7.7309088706970215 5.474880218505859 0.41731396317481995 -1.3231106748418098e-12 -1.4218351496175785e-10 -7.491414710791844e-10 2.9055399894714355 0.9651829600334167 0.10290198773145676 -1.3231106748418098e-12 -1.4218351496175785e-10 -7.491414710791844e-10 10.27859878540039 0.73180091381073 0.025912299752235413 -1.3231106748418098e-12 -1.4218351496175785e-10 -7.491414710791844e-10 2.2216696739196777 -0.7334870100021362 -0.2089199721813202 3.5622210476510263e-13 5.0888872109300376e-14 -8.269441988811854e-13 -72.69269561767578 21.663097381591797 -7.4514994621276855 13.91359806060791 -6.885649681091309 -25.37919807434082 0.08626711368560791 8.344880104064941 -1.1812598705291748 3.407086390794234e-09 6.810457753303467e-10 -2.6941395780966104e-09 5.871074737484605e-09 1.1255600895765383e-09 -4.684721499614852e-09 3.4070608556646675e-09 6.810457753303467e-10 -2.694120482260587e-09 -7.7309088706970215 5.474880218505859 -0.41731396317481995 3.407086390794234e-09 6.810457753303467e-10 -2.694152234639091e-09 -2.9055399894714355 0.9651829600334167 -0.10290198773145676 3.4070608556646675e-09 6.810457753303467e-10 -2.6941395780966104e-09 -10.27859878540039 0.73180091381073 -0.025912299752235413 3.407086390794234e-09 6.810457753303467e-10 -2.694152234639091e-09 -2.2216696739196777 -0.7334870100021362 0.2089199721813202 -0.0 0.0 -0.0 1.326629877090454 9.234970092773438 -7.156879901885986 0.00807584635913372 34.12209701538086 2.1139299869537354 -12.69890022277832 -20.658601760864258 -31.305999755859375 -0.0 0.0 -0.0 77.36650085449219 -55.75 67.39769744873047 3.0044898986816406 74.07329559326172 -3.0016801357269287 0.4927879273891449 -1.8082499504089355 -0.778223991394043
